<svg xmlns="http://www.w3.org/2000/svg" viewBox="0 0 400 520" width="400" height="520">
  <defs></defs>
  <defs><linearGradient id="sky53" x1="0%" y1="0%" x2="0%" y2="100%">
    <stop offset="0%" stop-color="#8B2BBE"/>
    <stop offset="100%" stop-color="#E83B8E"/>
  </linearGradient><radialGradient id="v51" cx="50%" cy="45%" r="75%">
    <stop offset="55%" stop-color="#000000" stop-opacity="0"/>
    <stop offset="100%" stop-color="#000000" stop-opacity="0.55"/>
  </radialGradient><filter id="g52"><feTurbulence type="fractalNoise" baseFrequency="0.85" numOctaves="2" stitchTiles="stitch" result="noise"/><feColorMatrix in="noise" type="matrix" values="0 0 0 0 1  0 0 0 0 1  0 0 0 0 1  0 0 0 0.05 0"/></filter></defs>
  <rect width="400" height="520" fill="url(#sky53)"/>
  <rect x="65.2" y="221.1" width="8.0" height="3.2" rx="2" fill="#ffffff" opacity="0.85" transform="rotate(203 65.2 221.1)"/><rect x="219.6" y="140.5" width="9.7" height="3.9" rx="2" fill="#E83B8E" opacity="0.85" transform="rotate(94 219.6 140.5)"/><rect x="216.2" y="225.6" width="8.0" height="3.2" rx="2" fill="#FFD166" opacity="0.85" transform="rotate(188 216.2 225.6)"/><rect x="179.7" y="219.0" width="5.9" height="2.4" rx="2" fill="#0878D9" opacity="0.85" transform="rotate(307 179.7 219.0)"/><rect x="202.4" y="172.6" width="14.2" height="5.7" rx="2" fill="#ffffff" opacity="0.85" transform="rotate(140 202.4 172.6)"/><rect x="25.0" y="196.0" width="6.4" height="2.5" rx="2" fill="#E83B8E" opacity="0.85" transform="rotate(43 25.0 196.0)"/><rect x="258.5" y="167.0" width="11.2" height="4.5" rx="2" fill="#FFD166" opacity="0.85" transform="rotate(277 258.5 167.0)"/><rect x="177.0" y="221.3" width="11.6" height="4.6" rx="2" fill="#0878D9" opacity="0.85" transform="rotate(132 177.0 221.3)"/><rect x="165.6" y="178.6" width="10.0" height="4.0" rx="2" fill="#ffffff" opacity="0.85" transform="rotate(164 165.6 178.6)"/><rect x="159.1" y="182.8" width="10.6" height="4.2" rx="2" fill="#E83B8E" opacity="0.85" transform="rotate(354 159.1 182.8)"/><rect x="112.2" y="236.4" width="8.6" height="3.5" rx="2" fill="#FFD166" opacity="0.85" transform="rotate(311 112.2 236.4)"/><rect x="311.9" y="191.6" width="5.4" height="2.2" rx="2" fill="#0878D9" opacity="0.85" transform="rotate(72 311.9 191.6)"/><rect x="203.6" y="187.9" width="10.7" height="4.3" rx="2" fill="#ffffff" opacity="0.85" transform="rotate(57 203.6 187.9)"/><rect x="251.2" y="169.2" width="12.0" height="4.8" rx="2" fill="#E83B8E" opacity="0.85" transform="rotate(197 251.2 169.2)"/><rect x="149.7" y="179.3" width="9.3" height="3.7" rx="2" fill="#FFD166" opacity="0.85" transform="rotate(6 149.7 179.3)"/><rect x="157.2" y="178.2" width="8.3" height="3.3" rx="2" fill="#0878D9" opacity="0.85" transform="rotate(347 157.2 178.2)"/><rect x="193.2" y="92.2" width="8.3" height="3.3" rx="2" fill="#ffffff" opacity="0.85" transform="rotate(29 193.2 92.2)"/><rect x="171.6" y="199.6" width="8.5" height="3.4" rx="2" fill="#E83B8E" opacity="0.85" transform="rotate(208 171.6 199.6)"/><rect x="160.2" y="182.0" width="9.9" height="4.0" rx="2" fill="#FFD166" opacity="0.85" transform="rotate(24 160.2 182.0)"/><rect x="104.5" y="191.0" width="14.2" height="5.7" rx="2" fill="#0878D9" opacity="0.85" transform="rotate(48 104.5 191.0)"/><rect x="11.7" y="150.1" width="9.5" height="3.8" rx="2" fill="#ffffff" opacity="0.85" transform="rotate(195 11.7 150.1)"/><rect x="26.9" y="163.4" width="12.2" height="4.9" rx="2" fill="#E83B8E" opacity="0.85" transform="rotate(48 26.9 163.4)"/>
  <circle cx="248" cy="286" r="54" fill="#ffe066" opacity="0.9"/>
  <circle cx="120" cy="322.4" r="30" fill="#ffffff" opacity="0.5"/>
  <rect width="400" height="520" fill="url(#v51)"/><rect width="400" height="520" filter="url(#g52)" style="mix-blend-mode:overlay" opacity="0.5"/>
</svg>